<svg xmlns="http://www.w3.org/2000/svg" width="24" height="24" viewBox="0 0 24 24" fill="none">
  <path d="M19.589 6.686a4.793 4.793 0 0 1-3.215-1.217 4.774 4.774 0 0 1-1.373-3.06h-3.3v13.564a2.981 2.981 0 0 1-2.43 2.937 2.984 2.984 0 0 1-3.514-2.11 2.984 2.984 0 0 1 1.033-3.155 2.984 2.984 0 0 1 1.63-.58V9.754a6.283 6.283 0 0 0-6.283 6.283 6.283 6.283 0 0 0 6.283 6.283 6.283 6.283 0 0 0 6.283-6.283V8.21c1.235.892 2.73 1.375 4.261 1.375V6.281a4.745 4.745 0 0 1-1.375-.295 4.757 4.757 0 0 1-1.205-.7z" fill="currentColor"/>
</svg>
